<?xml version="1.0" encoding="us-ascii" standalone="no"?><svg xmlns="http://www.w3.org/2000/svg" xmlns:xlink="http://www.w3.org/1999/xlink" contentStyleType="text/css" height="624px" preserveAspectRatio="none" style="width:694px;height:624px;background:#FFFFFF;" version="1.1" viewBox="0 0 694 624" width="694px" zoomAndPan="magnify"><defs/><g><!--class joke--><g id="elem_joke"><rect codeLine="5" fill="#F1F1F1" height="96" id="joke" rx="7" ry="7" style="stroke:#181818;stroke-width:1.0;" width="126" x="212" y="14"/><ellipse cx="242" cy="46" fill="#ADD1B2" rx="22" ry="22" style="stroke:#181818;stroke-width:2.0;"/><path d="M239.5938,47.75 L242.5,47.75 L242.5,47.9688 C242.5,48.7813 242.5625,49.0938 242.7188,49.4063 C243.0313,49.9063 243.5938,50.2188 244.1875,50.2188 C244.6875,50.2188 245.2188,49.9375 245.5313,49.5 C245.7813,49.1875 245.8438,48.875 245.8438,47.9688 L245.8438,44.125 C245.8438,43.8125 245.8438,43.7188 245.8125,43.4063 C245.6875,42.4688 245.0625,41.8438 244.1563,41.8438 C243.6563,41.8438 243.125,42.125 242.7813,42.5625 C242.5625,42.9063 242.5,43.2188 242.5,44.125 L242.5,44.375 L239.5938,44.375 L239.5938,39.5625 L247.5625,39.5625 L247.5625,41.2813 C247.5625,42.0938 247.625,42.4375 247.7813,42.75 C248.125,43.25 248.6875,43.5625 249.25,43.5625 C249.7813,43.5625 250.3125,43.2813 250.6563,42.8438 C250.875,42.5 250.9375,42.2188 250.9375,41.2813 L250.9375,36.1875 L235.6875,36.1875 C234.8125,36.1875 234.5625,36.2188 234.25,36.4063 C233.75,36.7188 233.4375,37.3125 233.4375,37.875 C233.4375,38.4375 233.7188,38.9375 234.1563,39.2813 C234.4688,39.5 234.8438,39.5625 235.6875,39.5625 L236.1875,39.5625 L236.1875,52.5938 L235.6875,52.5938 C234.875,52.5938 234.5625,52.625 234.25,52.8438 C233.75,53.1875 233.4375,53.7188 233.4375,54.3125 C233.4375,54.8438 233.7188,55.3438 234.1563,55.6563 C234.4375,55.9063 234.9063,56 235.6875,56 L251.6875,56 L251.6875,50.8438 C251.6875,49.9688 251.625,49.6875 251.4688,49.375 C251.125,48.875 250.5625,48.5625 250,48.5625 C249.4688,48.5625 248.9375,48.7813 248.5938,49.2813 C248.375,49.5938 248.3125,49.875 248.3125,50.8438 L248.3125,52.5938 L239.5938,52.5938 L239.5938,47.75 Z " fill="#000000"/><text fill="#000000" font-family="sans-serif" font-size="28" lengthAdjust="spacing" textLength="62" x="270" y="55.6934">joke</text><line style="stroke:#181818;stroke-width:1.0;" x1="214" x2="336" y1="78" y2="78"/><line style="stroke:#181818;stroke-width:1.0;" x1="214" x2="336" y1="94" y2="94"/></g><!--class keyword--><g id="elem_keyword"><rect codeLine="6" fill="#F1F1F1" height="96" id="keyword" rx="7" ry="7" style="stroke:#181818;stroke-width:1.0;" width="186" x="14" y="264"/><ellipse cx="44" cy="296" fill="#ADD1B2" rx="22" ry="22" style="stroke:#181818;stroke-width:2.0;"/><path d="M41.5938,297.75 L44.5,297.75 L44.5,297.9688 C44.5,298.7813 44.5625,299.0938 44.7188,299.4063 C45.0313,299.9063 45.5938,300.2188 46.1875,300.2188 C46.6875,300.2188 47.2188,299.9375 47.5313,299.5 C47.7813,299.1875 47.8438,298.875 47.8438,297.9688 L47.8438,294.125 C47.8438,293.8125 47.8438,293.7188 47.8125,293.4063 C47.6875,292.4688 47.0625,291.8438 46.1563,291.8438 C45.6563,291.8438 45.125,292.125 44.7813,292.5625 C44.5625,292.9063 44.5,293.2188 44.5,294.125 L44.5,294.375 L41.5938,294.375 L41.5938,289.5625 L49.5625,289.5625 L49.5625,291.2813 C49.5625,292.0938 49.625,292.4375 49.7813,292.75 C50.125,293.25 50.6875,293.5625 51.25,293.5625 C51.7813,293.5625 52.3125,293.2813 52.6563,292.8438 C52.875,292.5 52.9375,292.2188 52.9375,291.2813 L52.9375,286.1875 L37.6875,286.1875 C36.8125,286.1875 36.5625,286.2188 36.25,286.4063 C35.75,286.7188 35.4375,287.3125 35.4375,287.875 C35.4375,288.4375 35.7188,288.9375 36.1563,289.2813 C36.4688,289.5 36.8438,289.5625 37.6875,289.5625 L38.1875,289.5625 L38.1875,302.5938 L37.6875,302.5938 C36.875,302.5938 36.5625,302.625 36.25,302.8438 C35.75,303.1875 35.4375,303.7188 35.4375,304.3125 C35.4375,304.8438 35.7188,305.3438 36.1563,305.6563 C36.4375,305.9063 36.9063,306 37.6875,306 L53.6875,306 L53.6875,300.8438 C53.6875,299.9688 53.625,299.6875 53.4688,299.375 C53.125,298.875 52.5625,298.5625 52,298.5625 C51.4688,298.5625 50.9375,298.7813 50.5938,299.2813 C50.375,299.5938 50.3125,299.875 50.3125,300.8438 L50.3125,302.5938 L41.5938,302.5938 L41.5938,297.75 Z " fill="#000000"/><text fill="#000000" font-family="sans-serif" font-size="28" lengthAdjust="spacing" textLength="122" x="72" y="305.6934">keyword</text><line style="stroke:#181818;stroke-width:1.0;" x1="16" x2="198" y1="328" y2="328"/><line style="stroke:#181818;stroke-width:1.0;" x1="16" x2="198" y1="344" y2="344"/></g><!--class users--><g id="elem_users"><rect codeLine="7" fill="#F1F1F1" height="96" id="users" rx="7" ry="7" style="stroke:#181818;stroke-width:1.0;" width="138" x="376" y="264"/><ellipse cx="406" cy="296" fill="#ADD1B2" rx="22" ry="22" style="stroke:#181818;stroke-width:2.0;"/><path d="M403.5938,297.75 L406.5,297.75 L406.5,297.9688 C406.5,298.7813 406.5625,299.0938 406.7188,299.4063 C407.0313,299.9063 407.5938,300.2188 408.1875,300.2188 C408.6875,300.2188 409.2188,299.9375 409.5313,299.5 C409.7813,299.1875 409.8438,298.875 409.8438,297.9688 L409.8438,294.125 C409.8438,293.8125 409.8438,293.7188 409.8125,293.4063 C409.6875,292.4688 409.0625,291.8438 408.1563,291.8438 C407.6563,291.8438 407.125,292.125 406.7813,292.5625 C406.5625,292.9063 406.5,293.2188 406.5,294.125 L406.5,294.375 L403.5938,294.375 L403.5938,289.5625 L411.5625,289.5625 L411.5625,291.2813 C411.5625,292.0938 411.625,292.4375 411.7813,292.75 C412.125,293.25 412.6875,293.5625 413.25,293.5625 C413.7813,293.5625 414.3125,293.2813 414.6563,292.8438 C414.875,292.5 414.9375,292.2188 414.9375,291.2813 L414.9375,286.1875 L399.6875,286.1875 C398.8125,286.1875 398.5625,286.2188 398.25,286.4063 C397.75,286.7188 397.4375,287.3125 397.4375,287.875 C397.4375,288.4375 397.7188,288.9375 398.1563,289.2813 C398.4688,289.5 398.8438,289.5625 399.6875,289.5625 L400.1875,289.5625 L400.1875,302.5938 L399.6875,302.5938 C398.875,302.5938 398.5625,302.625 398.25,302.8438 C397.75,303.1875 397.4375,303.7188 397.4375,304.3125 C397.4375,304.8438 397.7188,305.3438 398.1563,305.6563 C398.4375,305.9063 398.9063,306 399.6875,306 L415.6875,306 L415.6875,300.8438 C415.6875,299.9688 415.625,299.6875 415.4688,299.375 C415.125,298.875 414.5625,298.5625 414,298.5625 C413.4688,298.5625 412.9375,298.7813 412.5938,299.2813 C412.375,299.5938 412.3125,299.875 412.3125,300.8438 L412.3125,302.5938 L403.5938,302.5938 L403.5938,297.75 Z " fill="#000000"/><text fill="#000000" font-family="sans-serif" font-size="28" lengthAdjust="spacing" textLength="74" x="434" y="305.6934">users</text><line style="stroke:#181818;stroke-width:1.0;" x1="378" x2="512" y1="328" y2="328"/><line style="stroke:#181818;stroke-width:1.0;" x1="378" x2="512" y1="344" y2="344"/></g><!--class authenticator--><g id="elem_authenticator"><rect codeLine="8" fill="#F1F1F1" height="96" id="authenticator" rx="7" ry="7" style="stroke:#181818;stroke-width:1.0;" width="262" x="314" y="514"/><ellipse cx="344" cy="546" fill="#ADD1B2" rx="22" ry="22" style="stroke:#181818;stroke-width:2.0;"/><path d="M341.5938,547.75 L344.5,547.75 L344.5,547.9688 C344.5,548.7813 344.5625,549.0938 344.7188,549.4063 C345.0313,549.9063 345.5938,550.2188 346.1875,550.2188 C346.6875,550.2188 347.2188,549.9375 347.5313,549.5 C347.7813,549.1875 347.8438,548.875 347.8438,547.9688 L347.8438,544.125 C347.8438,543.8125 347.8438,543.7188 347.8125,543.4063 C347.6875,542.4688 347.0625,541.8438 346.1563,541.8438 C345.6563,541.8438 345.125,542.125 344.7813,542.5625 C344.5625,542.9063 344.5,543.2188 344.5,544.125 L344.5,544.375 L341.5938,544.375 L341.5938,539.5625 L349.5625,539.5625 L349.5625,541.2813 C349.5625,542.0938 349.625,542.4375 349.7813,542.75 C350.125,543.25 350.6875,543.5625 351.25,543.5625 C351.7813,543.5625 352.3125,543.2813 352.6563,542.8438 C352.875,542.5 352.9375,542.2188 352.9375,541.2813 L352.9375,536.1875 L337.6875,536.1875 C336.8125,536.1875 336.5625,536.2188 336.25,536.4063 C335.75,536.7188 335.4375,537.3125 335.4375,537.875 C335.4375,538.4375 335.7188,538.9375 336.1563,539.2813 C336.4688,539.5 336.8438,539.5625 337.6875,539.5625 L338.1875,539.5625 L338.1875,552.5938 L337.6875,552.5938 C336.875,552.5938 336.5625,552.625 336.25,552.8438 C335.75,553.1875 335.4375,553.7188 335.4375,554.3125 C335.4375,554.8438 335.7188,555.3438 336.1563,555.6563 C336.4375,555.9063 336.9063,556 337.6875,556 L353.6875,556 L353.6875,550.8438 C353.6875,549.9688 353.625,549.6875 353.4688,549.375 C353.125,548.875 352.5625,548.5625 352,548.5625 C351.4688,548.5625 350.9375,548.7813 350.5938,549.2813 C350.375,549.5938 350.3125,549.875 350.3125,550.8438 L350.3125,552.5938 L341.5938,552.5938 L341.5938,547.75 Z " fill="#000000"/><text fill="#000000" font-family="sans-serif" font-size="28" lengthAdjust="spacing" textLength="198" x="372" y="555.6934">authenticator</text><line style="stroke:#181818;stroke-width:1.0;" x1="316" x2="574" y1="578" y2="578"/><line style="stroke:#181818;stroke-width:1.0;" x1="316" x2="574" y1="594" y2="594"/></g><!--link joke to keyword--><g id="link_joke_keyword"><path codeLine="10" d="M196.8972,90.5195 C157.4164,106.8935 124.561,128.058 101,170 C85.153,198.21 84.2215,219.2132 90.0309,247.9532 " fill="none" id="joke-keyword" style="stroke:#454645;stroke-width:2.0;"/><line style="stroke:#454645;stroke-width:2.0;" x1="196.8972" x2="207.0795" y1="90.5195" y2="73.3055"/><line style="stroke:#454645;stroke-width:2.0;" x1="196.8972" x2="216.2737" y1="90.5195" y2="95.4745"/><line style="stroke:#454645;stroke-width:2.0;" x1="196.8972" x2="211.6766" y1="90.5195" y2="84.39"/><line style="stroke:#454645;stroke-width:2.0;" x1="190.1377" x2="196.2672" y1="84.6622" y2="99.4415"/><line style="stroke:#454645;stroke-width:2.0;" x1="90.0309" x2="104.9631" y1="247.9532" y2="261.2584"/><line style="stroke:#454645;stroke-width:2.0;" x1="90.0309" x2="81.4389" y1="247.9532" y2="266.0136"/><line style="stroke:#454645;stroke-width:2.0;" x1="90.0309" x2="93.201" y1="247.9532" y2="263.636"/><line style="stroke:#454645;stroke-width:2.0;" x1="97.0798" x2="81.397" y1="242.4474" y2="245.6175"/><polygon fill="#000000" points="105.3837,195.4067,120.407,183.7403,110.6804,177.1379,105.3837,195.4067" style="stroke:#000000;stroke-width:2.0;"/><text fill="#000000" font-family="sans-serif" font-size="26" lengthAdjust="spacing" textLength="228" x="129" y="196.1338">is associated with</text></g><!--link joke to users--><g id="link_joke_users"><path codeLine="11" d="M342.8199,137.1822 C358.8379,155.1502 352.59,149.45 367,170 C387.926,199.842 394.0859,209.152 408.5619,237.156 " fill="none" id="joke-users" style="stroke:#454645;stroke-width:2.0;"/><line style="stroke:#454645;stroke-width:2.0;" x1="329.5111" x2="309.9066" y1="122.2532" y2="118.2953"/><line style="stroke:#454645;stroke-width:2.0;" x1="329.5111" x2="327.8214" y1="122.2532" y2="102.3247"/><line style="stroke:#454645;stroke-width:2.0;" x1="329.5111" x2="318.864" y1="122.2532" y2="110.31"/><ellipse cx="337.4963" cy="131.2106" fill="none" rx="8" ry="8" style="stroke:#454645;stroke-width:2.0;"/><line style="stroke:#454645;stroke-width:2.0;" x1="412.2356" x2="422.338" y1="244.2627" y2="263.806"/><ellipse cx="412.2356" cy="244.2627" fill="none" rx="8" ry="8" style="stroke:#454645;stroke-width:2.0;"/><line style="stroke:#454645;stroke-width:2.0;" x1="425.771" x2="411.5577" y1="253.0257" y2="260.373"/><polygon fill="#000000" points="402.4944,195.4881,397.4661,177.1437,387.6438,183.6027,402.4944,195.4881" style="stroke:#000000;stroke-width:2.0;"/><text fill="#000000" font-family="sans-serif" font-size="26" lengthAdjust="spacing" textLength="264" x="415" y="196.1338">can be submitted by</text></g><!--link users to authenticator--><g id="link_users_authenticator"><path codeLine="12" d="M445,376.27 C445,420.252 445,454.0246 445,497.9368 " fill="none" id="users-authenticator" style="stroke:#454645;stroke-width:2.0;"/><line style="stroke:#454645;stroke-width:2.0;" x1="437" x2="453" y1="368.27" y2="368.27"/><line style="stroke:#454645;stroke-width:2.0;" x1="437" x2="453" y1="374.27" y2="374.27"/><line style="stroke:#454645;stroke-width:2.0;" x1="445" x2="445" y1="376.27" y2="360.27"/><line style="stroke:#454645;stroke-width:2.0;" x1="445" x2="457" y1="497.9368" y2="513.9368"/><line style="stroke:#454645;stroke-width:2.0;" x1="445" x2="433" y1="497.9368" y2="513.9368"/><line style="stroke:#454645;stroke-width:2.0;" x1="445" x2="445" y1="497.9368" y2="513.9368"/><line style="stroke:#454645;stroke-width:2.0;" x1="453" x2="437" y1="493.9368" y2="493.9368"/><polygon fill="#000000" points="455,447.1328,460.8779,429.0426,449.1221,429.0426,455,447.1328" style="stroke:#000000;stroke-width:2.0;"/><text fill="#000000" font-family="sans-serif" font-size="26" lengthAdjust="spacing" textLength="144" x="473" y="446.1338">loggs in via</text></g><!--SRC=[LOyn3eCm34NtdCATEcNfs86xEC425uXHR5gXfdTl4CtGpLz-xrk-wiHfnOmBp9p8zfL0ietYDE9CS7CN6saXU7B8cCmvIiQsmqCcQlD4-qjot-AcbBK5tAfVnuWcsRb3Wq_nlhoR1dTW1LILo6ZKmujjXEw7YlTIpieAHamG27GB2zl1XhsIvxQShNy7gpBBC2XmgXyWT5y0]--></g></svg>