<?xml version="1.0" encoding="us-ascii" standalone="no"?><svg xmlns="http://www.w3.org/2000/svg" xmlns:xlink="http://www.w3.org/1999/xlink" contentStyleType="text/css" height="662px" preserveAspectRatio="none" style="width:664px;height:662px;background:#FFFFFF;" version="1.1" viewBox="0 0 664 662" width="664px" zoomAndPan="magnify"><defs/><g><!--class joke--><g id="elem_joke"><rect codeLine="5" fill="#F1F1F1" height="113.1875" id="joke" rx="3.5" ry="3.5" style="stroke:#181818;stroke-width:0.5;" width="298" x="222.75" y="7"/><ellipse cx="352" cy="23" fill="#ADD1B2" rx="11" ry="11" style="stroke:#181818;stroke-width:1.0;"/><path d="M350.7969,23.875 L352.25,23.875 L352.25,23.9844 C352.25,24.3906 352.2813,24.5469 352.3594,24.7031 C352.5156,24.9531 352.7969,25.1094 353.0938,25.1094 C353.3438,25.1094 353.6094,24.9688 353.7656,24.75 C353.8906,24.5938 353.9219,24.4375 353.9219,23.9844 L353.9219,22.0625 C353.9219,21.9063 353.9219,21.8594 353.9063,21.7031 C353.8438,21.2344 353.5313,20.9219 353.0781,20.9219 C352.8281,20.9219 352.5625,21.0625 352.3906,21.2813 C352.2813,21.4531 352.25,21.6094 352.25,22.0625 L352.25,22.1875 L350.7969,22.1875 L350.7969,19.7813 L354.7813,19.7813 L354.7813,20.6406 C354.7813,21.0469 354.8125,21.2188 354.8906,21.375 C355.0625,21.625 355.3438,21.7813 355.625,21.7813 C355.8906,21.7813 356.1563,21.6406 356.3281,21.4219 C356.4375,21.25 356.4688,21.1094 356.4688,20.6406 L356.4688,18.0938 L348.8438,18.0938 C348.4063,18.0938 348.2813,18.1094 348.125,18.2031 C347.875,18.3594 347.7188,18.6563 347.7188,18.9375 C347.7188,19.2188 347.8594,19.4688 348.0781,19.6406 C348.2344,19.75 348.4219,19.7813 348.8438,19.7813 L349.0938,19.7813 L349.0938,26.2969 L348.8438,26.2969 C348.4375,26.2969 348.2813,26.3125 348.125,26.4219 C347.875,26.5938 347.7188,26.8594 347.7188,27.1563 C347.7188,27.4219 347.8594,27.6719 348.0781,27.8281 C348.2188,27.9531 348.4531,28 348.8438,28 L356.8438,28 L356.8438,25.4219 C356.8438,24.9844 356.8125,24.8438 356.7344,24.6875 C356.5625,24.4375 356.2813,24.2813 356,24.2813 C355.7344,24.2813 355.4688,24.3906 355.2969,24.6406 C355.1875,24.7969 355.1563,24.9375 355.1563,25.4219 L355.1563,26.2969 L350.7969,26.2969 L350.7969,23.875 Z " fill="#000000"/><text fill="#000000" font-family="sans-serif" font-size="14" lengthAdjust="spacing" textLength="31" x="372.5" y="27.8467">joke</text><line style="stroke:#181818;stroke-width:0.5;" x1="223.75" x2="519.75" y1="39" y2="39"/><ellipse cx="233.75" cy="52.6484" fill="#000000" rx="3" ry="3" style="stroke:#000000;stroke-width:1.0;"/><text fill="#000000" font-family="sans-serif" font-size="14" lengthAdjust="spacing" textLength="111" x="242.75" y="55.9951">id: SERIAL &#171;PK&#187;</text><line style="stroke:#181818;stroke-width:1.0;" x1="223.75" x2="519.75" y1="63.2969" y2="63.2969"/><ellipse cx="233.75" cy="76.9453" fill="#000000" rx="3" ry="3" style="stroke:#000000;stroke-width:1.0;"/><text fill="#000000" font-family="sans-serif" font-size="14" lengthAdjust="spacing" textLength="143" x="242.75" y="80.292">content: TEXT &#171;SK&#187;</text><ellipse cx="233.75" cy="93.2422" fill="#000000" rx="3" ry="3" style="stroke:#000000;stroke-width:1.0;"/><text fill="#000000" font-family="sans-serif" font-size="14" lengthAdjust="spacing" textLength="131" x="242.75" y="96.5889">explanation: TEXT</text><text fill="#000000" font-family="sans-serif" font-size="14" lengthAdjust="spacing" textLength="272" x="242.75" y="112.8857">submitted_by: BIGINT UNSIGNED &#171;FK&#187;</text></g><!--class jk_pair--><g id="elem_jk_pair"><rect codeLine="13" fill="#F1F1F1" height="80.5938" id="jk_pair" rx="3.5" ry="3.5" style="stroke:#181818;stroke-width:0.5;" width="329" x="17.25" y="205"/><ellipse cx="153.5" cy="221" fill="#ADD1B2" rx="11" ry="11" style="stroke:#181818;stroke-width:1.0;"/><path d="M152.2969,221.875 L153.75,221.875 L153.75,221.9844 C153.75,222.3906 153.7813,222.5469 153.8594,222.7031 C154.0156,222.9531 154.2969,223.1094 154.5938,223.1094 C154.8438,223.1094 155.1094,222.9688 155.2656,222.75 C155.3906,222.5938 155.4219,222.4375 155.4219,221.9844 L155.4219,220.0625 C155.4219,219.9063 155.4219,219.8594 155.4063,219.7031 C155.3438,219.2344 155.0313,218.9219 154.5781,218.9219 C154.3281,218.9219 154.0625,219.0625 153.8906,219.2813 C153.7813,219.4531 153.75,219.6094 153.75,220.0625 L153.75,220.1875 L152.2969,220.1875 L152.2969,217.7813 L156.2813,217.7813 L156.2813,218.6406 C156.2813,219.0469 156.3125,219.2188 156.3906,219.375 C156.5625,219.625 156.8438,219.7813 157.125,219.7813 C157.3906,219.7813 157.6563,219.6406 157.8281,219.4219 C157.9375,219.25 157.9688,219.1094 157.9688,218.6406 L157.9688,216.0938 L150.3438,216.0938 C149.9063,216.0938 149.7813,216.1094 149.625,216.2031 C149.375,216.3594 149.2188,216.6563 149.2188,216.9375 C149.2188,217.2188 149.3594,217.4688 149.5781,217.6406 C149.7344,217.75 149.9219,217.7813 150.3438,217.7813 L150.5938,217.7813 L150.5938,224.2969 L150.3438,224.2969 C149.9375,224.2969 149.7813,224.3125 149.625,224.4219 C149.375,224.5938 149.2188,224.8594 149.2188,225.1563 C149.2188,225.4219 149.3594,225.6719 149.5781,225.8281 C149.7188,225.9531 149.9531,226 150.3438,226 L158.3438,226 L158.3438,223.4219 C158.3438,222.9844 158.3125,222.8438 158.2344,222.6875 C158.0625,222.4375 157.7813,222.2813 157.5,222.2813 C157.2344,222.2813 156.9688,222.3906 156.7969,222.6406 C156.6875,222.7969 156.6563,222.9375 156.6563,223.4219 L156.6563,224.2969 L152.2969,224.2969 L152.2969,221.875 Z " fill="#000000"/><text fill="#000000" font-family="sans-serif" font-size="14" lengthAdjust="spacing" textLength="48" x="174" y="225.8467">jk_pair</text><line style="stroke:#181818;stroke-width:0.5;" x1="18.25" x2="345.25" y1="237" y2="237"/><ellipse cx="28.25" cy="250.6484" fill="#000000" rx="3" ry="3" style="stroke:#000000;stroke-width:1.0;"/><text fill="#000000" font-family="sans-serif" font-size="14" lengthAdjust="spacing" textLength="262" x="37.25" y="253.9951">joke_id: BIGINT UNSIGNED &#171;PK&#187; &#171;FK&#187;</text><ellipse cx="28.25" cy="266.9453" fill="#000000" rx="3" ry="3" style="stroke:#000000;stroke-width:1.0;"/><text fill="#000000" font-family="sans-serif" font-size="14" lengthAdjust="spacing" textLength="303" x="37.25" y="270.292">keyword_id: BIGINT UNSIGNED &#171;PK&#187;&gt; &#171;FK&#187;</text><line style="stroke:#181818;stroke-width:1.0;" x1="18.25" x2="345.25" y1="277.5938" y2="277.5938"/></g><!--class Keyword--><g id="elem_Keyword"><rect codeLine="19" fill="#F1F1F1" height="96.8906" id="Keyword" rx="3.5" ry="3.5" style="stroke:#181818;stroke-width:0.5;" width="273" x="44.25" y="411.5"/><ellipse cx="145.5" cy="427.5" fill="#ADD1B2" rx="11" ry="11" style="stroke:#181818;stroke-width:1.0;"/><path d="M144.2969,428.375 L145.75,428.375 L145.75,428.4844 C145.75,428.8906 145.7813,429.0469 145.8594,429.2031 C146.0156,429.4531 146.2969,429.6094 146.5938,429.6094 C146.8438,429.6094 147.1094,429.4688 147.2656,429.25 C147.3906,429.0938 147.4219,428.9375 147.4219,428.4844 L147.4219,426.5625 C147.4219,426.4063 147.4219,426.3594 147.4063,426.2031 C147.3438,425.7344 147.0313,425.4219 146.5781,425.4219 C146.3281,425.4219 146.0625,425.5625 145.8906,425.7813 C145.7813,425.9531 145.75,426.1094 145.75,426.5625 L145.75,426.6875 L144.2969,426.6875 L144.2969,424.2813 L148.2813,424.2813 L148.2813,425.1406 C148.2813,425.5469 148.3125,425.7188 148.3906,425.875 C148.5625,426.125 148.8438,426.2813 149.125,426.2813 C149.3906,426.2813 149.6563,426.1406 149.8281,425.9219 C149.9375,425.75 149.9688,425.6094 149.9688,425.1406 L149.9688,422.5938 L142.3438,422.5938 C141.9063,422.5938 141.7813,422.6094 141.625,422.7031 C141.375,422.8594 141.2188,423.1563 141.2188,423.4375 C141.2188,423.7188 141.3594,423.9688 141.5781,424.1406 C141.7344,424.25 141.9219,424.2813 142.3438,424.2813 L142.5938,424.2813 L142.5938,430.7969 L142.3438,430.7969 C141.9375,430.7969 141.7813,430.8125 141.625,430.9219 C141.375,431.0938 141.2188,431.3594 141.2188,431.6563 C141.2188,431.9219 141.3594,432.1719 141.5781,432.3281 C141.7188,432.4531 141.9531,432.5 142.3438,432.5 L150.3438,432.5 L150.3438,429.9219 C150.3438,429.4844 150.3125,429.3438 150.2344,429.1875 C150.0625,428.9375 149.7813,428.7813 149.5,428.7813 C149.2344,428.7813 148.9688,428.8906 148.7969,429.1406 C148.6875,429.2969 148.6563,429.4375 148.6563,429.9219 L148.6563,430.7969 L144.2969,430.7969 L144.2969,428.375 Z " fill="#000000"/><text fill="#000000" font-family="sans-serif" font-size="14" lengthAdjust="spacing" textLength="62" x="166" y="432.3467">Keyword</text><line style="stroke:#181818;stroke-width:0.5;" x1="45.25" x2="316.25" y1="443.5" y2="443.5"/><ellipse cx="55.25" cy="457.1484" fill="#000000" rx="3" ry="3" style="stroke:#000000;stroke-width:1.0;"/><text fill="#000000" font-family="sans-serif" font-size="14" lengthAdjust="spacing" textLength="111" x="64.25" y="460.4951">id: SERIAL &#171;PK&#187;</text><line style="stroke:#181818;stroke-width:1.0;" x1="45.25" x2="316.25" y1="467.7969" y2="467.7969"/><ellipse cx="55.25" cy="481.4453" fill="#000000" rx="3" ry="3" style="stroke:#000000;stroke-width:1.0;"/><text fill="#000000" font-family="sans-serif" font-size="14" lengthAdjust="spacing" textLength="177" x="64.25" y="484.792">title: VARCHAR(30) &#171;SK&#187;</text><text fill="#000000" font-family="sans-serif" font-size="14" lengthAdjust="spacing" textLength="247" x="64.25" y="501.0889">searched_times: BIGINT UNSIGNED</text></g><!--class users--><g id="elem_users"><rect codeLine="27" fill="#F1F1F1" height="96.8906" id="users" rx="3.5" ry="3.5" style="stroke:#181818;stroke-width:0.5;" width="237" x="383.25" y="197"/><ellipse cx="479" cy="213" fill="#ADD1B2" rx="11" ry="11" style="stroke:#181818;stroke-width:1.0;"/><path d="M477.7969,213.875 L479.25,213.875 L479.25,213.9844 C479.25,214.3906 479.2813,214.5469 479.3594,214.7031 C479.5156,214.9531 479.7969,215.1094 480.0938,215.1094 C480.3438,215.1094 480.6094,214.9688 480.7656,214.75 C480.8906,214.5938 480.9219,214.4375 480.9219,213.9844 L480.9219,212.0625 C480.9219,211.9063 480.9219,211.8594 480.9063,211.7031 C480.8438,211.2344 480.5313,210.9219 480.0781,210.9219 C479.8281,210.9219 479.5625,211.0625 479.3906,211.2813 C479.2813,211.4531 479.25,211.6094 479.25,212.0625 L479.25,212.1875 L477.7969,212.1875 L477.7969,209.7813 L481.7813,209.7813 L481.7813,210.6406 C481.7813,211.0469 481.8125,211.2188 481.8906,211.375 C482.0625,211.625 482.3438,211.7813 482.625,211.7813 C482.8906,211.7813 483.1563,211.6406 483.3281,211.4219 C483.4375,211.25 483.4688,211.1094 483.4688,210.6406 L483.4688,208.0938 L475.8438,208.0938 C475.4063,208.0938 475.2813,208.1094 475.125,208.2031 C474.875,208.3594 474.7188,208.6563 474.7188,208.9375 C474.7188,209.2188 474.8594,209.4688 475.0781,209.6406 C475.2344,209.75 475.4219,209.7813 475.8438,209.7813 L476.0938,209.7813 L476.0938,216.2969 L475.8438,216.2969 C475.4375,216.2969 475.2813,216.3125 475.125,216.4219 C474.875,216.5938 474.7188,216.8594 474.7188,217.1563 C474.7188,217.4219 474.8594,217.6719 475.0781,217.8281 C475.2188,217.9531 475.4531,218 475.8438,218 L483.8438,218 L483.8438,215.4219 C483.8438,214.9844 483.8125,214.8438 483.7344,214.6875 C483.5625,214.4375 483.2813,214.2813 483,214.2813 C482.7344,214.2813 482.4688,214.3906 482.2969,214.6406 C482.1875,214.7969 482.1563,214.9375 482.1563,215.4219 L482.1563,216.2969 L477.7969,216.2969 L477.7969,213.875 Z " fill="#000000"/><text fill="#000000" font-family="sans-serif" font-size="14" lengthAdjust="spacing" textLength="37" x="499.5" y="217.8467">users</text><line style="stroke:#181818;stroke-width:0.5;" x1="384.25" x2="619.25" y1="229" y2="229"/><ellipse cx="394.25" cy="242.6484" fill="#000000" rx="3" ry="3" style="stroke:#000000;stroke-width:1.0;"/><text fill="#000000" font-family="sans-serif" font-size="14" lengthAdjust="spacing" textLength="111" x="403.25" y="245.9951">id: SERIAL &#171;PK&#187;</text><line style="stroke:#181818;stroke-width:1.0;" x1="384.25" x2="619.25" y1="253.2969" y2="253.2969"/><ellipse cx="394.25" cy="266.9453" fill="#000000" rx="3" ry="3" style="stroke:#000000;stroke-width:1.0;"/><text fill="#000000" font-family="sans-serif" font-size="14" lengthAdjust="spacing" textLength="211" x="403.25" y="270.292">username VARCHAR(30) &#171;SK&#187;</text><text fill="#000000" font-family="sans-serif" font-size="14" lengthAdjust="spacing" textLength="174" x="403.25" y="286.5889">current_challange: TEXT</text></g><!--class authenticator--><g id="elem_authenticator"><rect codeLine="35" fill="#F1F1F1" height="178.375" id="authenticator" rx="3.5" ry="3.5" style="stroke:#181818;stroke-width:0.5;" width="300" x="352.75" y="371"/><ellipse cx="449" cy="387" fill="#ADD1B2" rx="11" ry="11" style="stroke:#181818;stroke-width:1.0;"/><path d="M447.7969,387.875 L449.25,387.875 L449.25,387.9844 C449.25,388.3906 449.2813,388.5469 449.3594,388.7031 C449.5156,388.9531 449.7969,389.1094 450.0938,389.1094 C450.3438,389.1094 450.6094,388.9688 450.7656,388.75 C450.8906,388.5938 450.9219,388.4375 450.9219,387.9844 L450.9219,386.0625 C450.9219,385.9063 450.9219,385.8594 450.9063,385.7031 C450.8438,385.2344 450.5313,384.9219 450.0781,384.9219 C449.8281,384.9219 449.5625,385.0625 449.3906,385.2813 C449.2813,385.4531 449.25,385.6094 449.25,386.0625 L449.25,386.1875 L447.7969,386.1875 L447.7969,383.7813 L451.7813,383.7813 L451.7813,384.6406 C451.7813,385.0469 451.8125,385.2188 451.8906,385.375 C452.0625,385.625 452.3438,385.7813 452.625,385.7813 C452.8906,385.7813 453.1563,385.6406 453.3281,385.4219 C453.4375,385.25 453.4688,385.1094 453.4688,384.6406 L453.4688,382.0938 L445.8438,382.0938 C445.4063,382.0938 445.2813,382.1094 445.125,382.2031 C444.875,382.3594 444.7188,382.6563 444.7188,382.9375 C444.7188,383.2188 444.8594,383.4688 445.0781,383.6406 C445.2344,383.75 445.4219,383.7813 445.8438,383.7813 L446.0938,383.7813 L446.0938,390.2969 L445.8438,390.2969 C445.4375,390.2969 445.2813,390.3125 445.125,390.4219 C444.875,390.5938 444.7188,390.8594 444.7188,391.1563 C444.7188,391.4219 444.8594,391.6719 445.0781,391.8281 C445.2188,391.9531 445.4531,392 445.8438,392 L453.8438,392 L453.8438,389.4219 C453.8438,388.9844 453.8125,388.8438 453.7344,388.6875 C453.5625,388.4375 453.2813,388.2813 453,388.2813 C452.7344,388.2813 452.4688,388.3906 452.2969,388.6406 C452.1875,388.7969 452.1563,388.9375 452.1563,389.4219 L452.1563,390.2969 L447.7969,390.2969 L447.7969,387.875 Z " fill="#000000"/><text fill="#000000" font-family="sans-serif" font-size="14" lengthAdjust="spacing" textLength="99" x="469.5" y="391.8467">authenticator</text><line style="stroke:#181818;stroke-width:0.5;" x1="353.75" x2="651.75" y1="403" y2="403"/><ellipse cx="363.75" cy="416.6484" fill="#000000" rx="3" ry="3" style="stroke:#000000;stroke-width:1.0;"/><text fill="#000000" font-family="sans-serif" font-size="14" lengthAdjust="spacing" textLength="111" x="372.75" y="419.9951">id: SERIAL &#171;PK&#187;</text><line style="stroke:#181818;stroke-width:1.0;" x1="353.75" x2="651.75" y1="427.2969" y2="427.2969"/><ellipse cx="363.75" cy="440.9453" fill="#000000" rx="3" ry="3" style="stroke:#000000;stroke-width:1.0;"/><text fill="#000000" font-family="sans-serif" font-size="14" lengthAdjust="spacing" textLength="157" x="372.75" y="444.292">credential_id: TEXT |I|</text><ellipse cx="363.75" cy="457.2422" fill="#000000" rx="3" ry="3" style="stroke:#000000;stroke-width:1.0;"/><text fill="#000000" font-family="sans-serif" font-size="14" lengthAdjust="spacing" textLength="205" x="372.75" y="460.5889">credential_public_key: BLOB</text><ellipse cx="363.75" cy="473.5391" fill="#000000" rx="3" ry="3" style="stroke:#000000;stroke-width:1.0;"/><text fill="#000000" font-family="sans-serif" font-size="14" lengthAdjust="spacing" textLength="271" x="372.75" y="476.8857">counter: BIGINT UNSIGNED DEFAULT 0</text><ellipse cx="363.75" cy="489.8359" fill="#000000" rx="3" ry="3" style="stroke:#000000;stroke-width:1.0;"/><text fill="#000000" font-family="sans-serif" font-size="14" lengthAdjust="spacing" textLength="274" x="372.75" y="493.1826">credential_device_type: VARCHAR(32)</text><ellipse cx="363.75" cy="506.1328" fill="#000000" rx="3" ry="3" style="stroke:#000000;stroke-width:1.0;"/><text fill="#000000" font-family="sans-serif" font-size="14" lengthAdjust="spacing" textLength="207" x="372.75" y="509.4795">credential_backed_up: BOOL</text><text fill="#000000" font-family="sans-serif" font-size="14" lengthAdjust="spacing" textLength="191" x="372.75" y="525.7764">transports: VARCHAR(255)</text><ellipse cx="363.75" cy="538.7266" fill="#000000" rx="3" ry="3" style="stroke:#000000;stroke-width:1.0;"/><text fill="#000000" font-family="sans-serif" font-size="14" lengthAdjust="spacing" textLength="222" x="372.75" y="542.0732">user_id: BIGINT UNSIGNED &#171;FK&#187;</text></g><!--link joke to jk_pair--><g id="link_joke_jk_pair"><path codeLine="47" d="M307.1265,125.7221 C278.2455,153.0841 255.7326,174.411 229.5276,199.237 " fill="none" id="joke-jk_pair" style="stroke:#454645;stroke-width:1.0;"/><line style="stroke:#454645;stroke-width:1.0;" x1="307.2792" x2="312.7813" y1="120.0673" y2="125.8748"/><line style="stroke:#454645;stroke-width:1.0;" x1="305.1014" x2="310.6035" y1="122.1306" y2="127.9381"/><line style="stroke:#454645;stroke-width:1.0;" x1="307.1265" x2="312.934" y1="125.7221" y2="120.22"/><line style="stroke:#454645;stroke-width:1.0;" x1="229.5276" x2="227.8465" y1="199.237" y2="209.0947"/><line style="stroke:#454645;stroke-width:1.0;" x1="229.5276" x2="219.5935" y1="199.237" y2="200.3833"/><line style="stroke:#454645;stroke-width:1.0;" x1="229.5276" x2="223.72" y1="199.237" y2="204.739"/><line style="stroke:#454645;stroke-width:1.0;" x1="233.7305" x2="228.2285" y1="200.7653" y2="194.9577"/><polygon fill="#000000" points="278.1202,162.0051,286.7078,157.9179,282.6653,153.6509,278.1202,162.0051" style="stroke:#000000;stroke-width:1.0;"/><text fill="#000000" font-family="sans-serif" font-size="13" lengthAdjust="spacing" textLength="23" x="290.75" y="163.0669">has</text></g><!--link jk_pair to Keyword--><g id="link_jk_pair_Keyword"><path codeLine="48" d="M181.5243,294.4699 C181.3573,329.9359 181.1887,365.8091 181.0117,403.4081 " fill="none" id="jk_pair-Keyword" style="stroke:#454645;stroke-width:1.0;"/><line style="stroke:#454645;stroke-width:1.0;" x1="181.5243" x2="175.5621" y1="294.4699" y2="286.4417"/><line style="stroke:#454645;stroke-width:1.0;" x1="181.5243" x2="187.5619" y1="294.4699" y2="286.4983"/><line style="stroke:#454645;stroke-width:1.0;" x1="181.5243" x2="181.562" y1="294.4699" y2="286.47"/><line style="stroke:#454645;stroke-width:1.0;" x1="177.515" x2="185.5149" y1="296.4511" y2="296.4887"/><line style="stroke:#454645;stroke-width:1.0;" x1="184.9928" x2="176.9929" y1="407.4269" y2="407.3892"/><line style="stroke:#454645;stroke-width:1.0;" x1="185.0069" x2="177.007" y1="404.4269" y2="404.3892"/><line style="stroke:#454645;stroke-width:1.0;" x1="181.0117" x2="180.974" y1="403.4081" y2="411.408"/><polygon fill="#000000" points="186.7735,327.5665,183.7921,336.5976,189.6699,336.6253,186.7735,327.5665" style="stroke:#000000;stroke-width:1.0;"/><text fill="#000000" font-family="sans-serif" font-size="13" lengthAdjust="spacing" textLength="57" x="195.75" y="337.0669">is part of</text></g><!--link joke to users--><g id="link_joke_users"><path codeLine="49" d="M422.7089,135.0582 C440.3739,159.5172 441.5577,161.1568 458.4887,184.5998 " fill="none" id="joke-users" style="stroke:#454645;stroke-width:1.0;"/><line style="stroke:#454645;stroke-width:1.0;" x1="416.854" x2="407.3059" y1="126.9514" y2="123.979"/><line style="stroke:#454645;stroke-width:1.0;" x1="416.854" x2="417.0341" y1="126.9514" y2="116.953"/><line style="stroke:#454645;stroke-width:1.0;" x1="416.854" x2="412.17" y1="126.9514" y2="120.466"/><ellipse cx="420.3669" cy="131.8155" fill="none" rx="4" ry="4" style="stroke:#454645;stroke-width:1.0;"/><line style="stroke:#454645;stroke-width:1.0;" x1="460.8306" x2="467.271" y1="187.8425" y2="196.76"/><ellipse cx="460.8306" cy="187.8425" fill="none" rx="4" ry="4" style="stroke:#454645;stroke-width:1.0;"/><line style="stroke:#454645;stroke-width:1.0;" x1="468.1718" x2="461.6863" y1="191.1753" y2="195.8592"/><polygon fill="#000000" points="452.6774,162.6198,449.7642,153.5664,444.9991,157.0078,452.6774,162.6198" style="stroke:#000000;stroke-width:1.0;"/><text fill="#000000" font-family="sans-serif" font-size="13" lengthAdjust="spacing" textLength="112" x="458.75" y="163.0669">can submitted by</text></g><!--link users to authenticator--><g id="link_users_authenticator"><path codeLine="50" d="M502.0118,302.1889 C502.1188,324.8269 502.1745,336.6231 502.2975,362.8941 " fill="none" id="users-authenticator" style="stroke:#454645;stroke-width:1.0;"/><line style="stroke:#454645;stroke-width:1.0;" x1="497.993" x2="505.9929" y1="298.2079" y2="298.17"/><line style="stroke:#454645;stroke-width:1.0;" x1="498.0071" x2="506.007" y1="301.2078" y2="301.17"/><line style="stroke:#454645;stroke-width:1.0;" x1="502.0118" x2="501.974" y1="302.1889" y2="294.189"/><line style="stroke:#454645;stroke-width:1.0;" x1="502.2975" x2="508.3349" y1="362.8941" y2="370.8659"/><line style="stroke:#454645;stroke-width:1.0;" x1="502.2975" x2="496.3351" y1="362.8941" y2="370.9221"/><line style="stroke:#454645;stroke-width:1.0;" x1="502.2975" x2="502.335" y1="362.8941" y2="370.894"/><line style="stroke:#454645;stroke-width:1.0;" x1="506.2881" x2="498.2882" y1="360.8754" y2="360.9128"/><polygon fill="#000000" points="506.7735,337.5664,509.6699,328.5075,503.7921,328.5352,506.7735,337.5664" style="stroke:#000000;stroke-width:1.0;"/><text fill="#000000" font-family="sans-serif" font-size="13" lengthAdjust="spacing" textLength="64" x="515.75" y="337.0669">logs in via</text></g><rect fill="none" height="75.1875" id="_legend" rx="3.5" ry="3.5" style="stroke:#000000;stroke-width:1.0;" width="632" x="12" y="567.375"/><text fill="#000000" font-family="sans-serif" font-size="14" lengthAdjust="spacing" textLength="449" x="17" y="585.3701">Attributes with a &#8226; (list marker) have the NOT NULL constraint.</text><text fill="#000000" font-family="sans-serif" font-size="14" lengthAdjust="spacing" textLength="622" x="17" y="601.667">Attributes without a &#8226; (list marker) have the DEFAULT NULL unless specified otherwise.</text><text fill="#000000" font-family="sans-serif" font-size="14" lengthAdjust="spacing" textLength="312" x="17" y="617.9639">Attributes with &#171;SK&#187; have an UNIQUE Index.</text><text fill="#000000" font-family="sans-serif" font-size="14" lengthAdjust="spacing" textLength="272" x="17" y="634.2607">Attributes with |I| are indexed as well.</text><!--SRC=[ZLJRJkCm47tFLym-GP6AM5QyHAXIMGeRKRLGsjM-LOupRRnrxCXsA1MfjD-odxPVikCalQ02eYzjxPapPywSyP5T29KpmpAGGg5RvGZQk5G7bZE9y3NuubBC49v4R9XoGO3A2RU2ttg1y180VKv0924yzaPHjm-Nb_TtdKvrtcutrrmhHsaXZ7k_nXJnk8au0NpE9LFC2Qtgw-hS5d4cdCDa6gz2k8fkey4O9eF7w7RGkoQ06m-mtd5PJ7Ccp9QEvpRrd0upFRaDG1symDLIc-I3-5S9rDIky5sT2qtb8oWiaXWWb7N84j0pe3YIaLculuEPDf2ZeQ-CAKwdAW5aLg01J8GJQkup6aBsSzfM-27yx8w-_-YEZh-TjVO5jiWCJqb79pAq1mtkjKBCZTtsCKwHHkCCgxgne92ZjSoigXuAwwbQaUKIbnYpmgKg_1nTNqOnyjCxX7bX336QyfH9CiOS6rViYFfg_YTdJfjFEz1WufEOhEPS-R2CoiFRl8Ybu5EQ0OdL7rvj7LoGXSsXGwvxDzr9VmndXr09FWcEKxzIU_CvRnr6nemlQ4P5JlZ3ORyA8EsLpMaLxIxv_EAYjQVZEvRTB4UreMNPRfSlsmq98IKhTeBD_xM_BhS-3lsiwJLmteUNDS9QjzkwRFmH0cTgjvuGhmYilceglHvF25BFBUq3lHyCEX044kUeaggBhdD6n8L32qlXKc3mxyzVE9R2EiYOMQ1f4Tqd14A4mN0CWqc_xnyJI-88vKxVGj65-nXeCx4Ah52IV0qsHovcWXhI56AMmkARu8rJQp0IOZA87YOzY5I2psydaCc06NeKV0ZXa_fBbFAKt9pKKlm7]--></g></svg>